PathFileType	4	(X/Y/Z)	/Users/niels/Desktop/University/Third Semester/Perception and Action/Exam/Gymnastics Motion Tracking/Code for Gym Tracking/Analyzed Data/Webcam_Backflip/id1_1_baseline_Sports2D/id1_1_baseline_Sports2D_px_person00.trc
DataRate	CameraRate	NumFrames	NumMarkers	Units	OrigDataRate	OrigDataStartFrame	OrigNumFrames
29.872340425531917	29.872340425531917	8	22	m	29.872340425531917	176	235
Frame#	Time	Hip			RHip			RKnee			RAnkle			RBigToe			RSmallToe			RHeel			LHip			LKnee			LAnkle			LBigToe			LSmallToe			LHeel			Neck			Head			Nose			RShoulder			RElbow			RWrist			LShoulder			LElbow			LWrist		
		X1	Y1	Z1	X2	Y2	Z2	X3	Y3	Z3	X4	Y4	Z4	X5	Y5	Z5	X6	Y6	Z6	X7	Y7	Z7	X8	Y8	Z8	X9	Y9	Z9	X10	Y10	Z10	X11	Y11	Z11	X12	Y12	Z12	X13	Y13	Z13	X14	Y14	Z14	X15	Y15	Z15	X16	Y16	Z16	X17	Y17	Z17	X18	Y18	Z18	X19	Y19	Z19	X20	Y20	Z20	X21	Y21	Z21	X22	Y22	Z22
176	5.8917378917378915	0.9527209859629785	-0.5890485525637679	0.0	0.9385998310116475	-0.5812997732363429	0.0	0.9430985665472963	-0.6890024019023113	0.0	0.9272878221387596	-0.7991498823407224	0.0	0.9729242745150264	-0.8212893507527	0.0	0.9619411701928396	-0.8226394931959888	0.0	0.9197735507567859	-0.8162357836617979	0.0	0.9653300901929287	-0.5839607636655259	0.0	0.9484299477394099	-0.6901744269965323	0.0	0.9269654630447565	-0.7949820125168915	0.0	0.9690754584065554	-0.8181112934384784	0.0	0.9680439263037064	-0.8137655896895727	0.0	0.9116873991630469	-0.8123663632908977	0.0	0.9579558882066399	-0.42313922208923804	0.0	0.9698620552243272	-0.35505561780598927	0.0	0.9675239933064845	-0.3954673066774032	0.0	0.9158611237766149	-0.44520199509049585	0.0	0.8948036226733869	-0.5173892194607412	0.0	0.9095866110882587	-0.5846099885114265	0.0	0.9853208860926735	-0.4523891360891523	0.0	0.9676834688404924	-0.5222776238283934	0.0	0.9724540471101105	-0.5923432888622434	0.0
177	5.9252136752136755	0.9522564888225825	-0.5894647717124523	0.0	0.9381284319869613	-0.5812482577856848	0.0	0.9426248069419303	-0.6896170155969705	0.0	0.9272015616086339	-0.7998761212631071	0.0	0.9728571047085326	-0.8217270085551064	0.0	0.9617557733703339	-0.8229449858086187	0.0	0.9196999353024196	-0.8167942112583741	0.0	0.964958848176507	-0.5837118209389579	0.0	0.9480747510943964	-0.6907747462062546	0.0	0.9267198027266788	-0.7954089501078643	0.0	0.9687358971959427	-0.8184295811984428	0.0	0.9678594045240572	-0.813941226143659	0.0	0.9115974020546161	-0.8128652504313191	0.0	0.9578377587459493	-0.42373844245872755	0.0	0.9699963327506644	-0.35563732023493033	0.0	0.9677892442577971	-0.39603548245461995	0.0	0.9156333281621849	-0.44595068949811123	0.0	0.894477766748411	-0.5178519383355227	0.0	0.9094768235006404	-0.5850445514882819	0.0	0.9849719798252975	-0.45294059519086355	0.0	0.9654169646542761	-0.5221143369143215	0.0	0.970224370043318	-0.5920920602356775	0.0
178	5.9586894586894585	0.9518460149211192	-0.5905130134342108	0.0	0.9377982902779401	-0.5816153128664868	0.0	0.9421323835501499	-0.691110939547847	0.0	0.9268811984713528	-0.8012299288333379	0.0	0.9726162258720565	-0.8228299912160199	0.0	0.9614794286754362	-0.823957095625903	0.0	0.9194657946901382	-0.8180267424296883	0.0	0.9647776570527136	-0.5840088247349857	0.0	0.9477512488581397	-0.6921884118221984	0.0	0.9266567985882326	-0.7967524624934923	0.0	0.9687104018906826	-0.8195501645753536	0.0	0.9678990066346488	-0.8150705758811896	0.0	0.9116979666429447	-0.8141566998149812	0.0	0.9577247712064118	-0.42508709541689077	0.0	0.9701688141524434	-0.3570563274084051	0.0	0.9681027664800942	-0.3974796080699958	0.0	0.9154088811322434	-0.44745496503443466	0.0	0.8941308235512793	-0.5191428132270339	0.0	0.909507736453514	-0.5862985384043397	0.0	0.9846250378041659	-0.4543140587967343	0.0	0.964779606164036	-0.5233481693117202	0.0	0.9701333699316219	-0.5934050675061551	0.0
179	5.9921652421652425	0.9515025481276458	-0.5921655618640366	0.0	0.9376344288248769	-0.5826442993126149	0.0	0.9416127951527111	-0.6933594872551944	0.0	0.9263373234285505	-0.8030824726469143	0.0	0.9722035707754492	-0.8244513504843066	0.0	0.9611225019487449	-0.8255802783210894	0.0	0.9190643553877549	-0.8198658221980017	0.0	0.9646417668331857	-0.5850977853207848	0.0	0.9473931619643985	-0.6942789915500782	0.0	0.9267583495417264	-0.7988826978756008	0.0	0.9689947322898674	-0.8213761080949611	0.0	0.9681032579087306	-0.8170643585350454	0.0	0.911957788386026	-0.816124229783538	0.0	0.957604725849049	-0.4270978598452067	0.0	0.9703140455268929	-0.35915070370177066	0.0	0.9684001739958059	-0.39966628534232296	0.0	0.9152433237722605	-0.44953917990984077	0.0	0.8938471784306722	-0.5211156493390141	0.0	0.9096568035722135	-0.5882172865722118	0.0	0.9842341581081046	-0.45637655466047233	0.0	0.965653688107823	-0.5258109524181966	0.0	0.9719305681308332	-0.5960036434234003	0.0
180	6.0256410256410255	0.9512118985568798	-0.5943242977608013	0.0	0.9375822537867141	-0.584594549496773	0.0	0.9410622250821561	-0.6961527576120042	0.0	0.9256788367546586	-0.8053042247693636	0.0	0.9717005950844427	-0.8264470244014228	0.0	0.9607509926956338	-0.827673440329193	0.0	0.9185699005185698	-0.8221621372149075	0.0	0.9643574542713568	-0.587229484485123	0.0	0.9469121434181922	-0.6968528614041102	0.0	0.9269118097048369	-0.8016017566020228	0.0	0.969478746471747	-0.8237286153800214	0.0	0.9683570860202725	-0.8196958227238471	0.0	0.9123289136062582	-0.8185991821048948	0.0	0.957463906941178	-0.429624589904137	0.0	0.9703499803621813	-0.36171111246746135	0.0	0.9686338562088606	-0.40239438967251284	0.0	0.9151901011189427	-0.45197783077499315	0.0	0.8937260089175557	-0.5235809253331172	0.0	0.9098655665265777	-0.5906007070374547	0.0	0.9837894034639931	-0.45890074867488356	0.0	0.9675843209110134	-0.5291346940517895	0.0	0.9749610816318631	-0.5993506266832197	0.0
181	6.0591168091168095	0.9509344051337333	-0.5968126191597976	0.0	0.937536789364635	-0.5875494392403351	0.0	0.940502098055313	-0.6992171838312885	0.0	0.9250649072459183	-0.8077478431115592	0.0	0.9712168311871078	-0.8286699531248769	0.0	0.9604552019058277	-0.8300301200837098	0.0	0.9181088044762616	-0.8246946253718478	0.0	0.9637659432620678	-0.5904572397667327	0.0	0.9462357249818752	-0.6996937068398567	0.0	0.9269788515672814	-0.8046505647034866	0.0	0.9700008512583487	-0.826361531551305	0.0	0.96854572033185	-0.8226435841218871	0.0	0.9127586124221275	-0.821363740178161	0.0	0.9573008678825826	-0.4324551780885337	0.0	0.9702276609976316	-0.364517879935318	0.0	0.9688063777498365	-0.4053937873803325	0.0	0.9152590806205689	-0.45453077843335815	0.0	0.8938080358776139	-0.5263034485639134	0.0	0.9100592416937658	-0.5932241263321368	0.0	0.9833066001222911	-0.46158960024337437	0.0	0.9699854252541471	-0.5328492827918948	0.0	0.9785288044498984	-0.6028700951012598	0.0
182	6.092592592592593	0.9506083973607092	-0.5994021875231836	0.0	0.9373894537404835	-0.5913514194332332	0.0	0.9399705294994745	-0.7022543390878442	0.0	0.9246379036878856	-0.8102145093729151	0.0	0.9708377550687175	-0.8309358470640517	0.0	0.9603160717164837	-0.8323982901490785	0.0	0.9177929982230312	-0.8272088891915286	0.0	0.9627953780910572	-0.5945556037886653	0.0	0.94533417754467	-0.7025821444292927	0.0	0.926875218343333	-0.8077294368977774	0.0	0.9704096143227741	-0.8290182266715501	0.0	0.9686001437690713	-0.8255852348016844	0.0	0.9131973398155061	-0.8241707710531128	0.0	0.9571262357240917	-0.4353217923427061	0.0	0.9699564254405673	-0.3673485130036572	0.0	0.9689561856577631	-0.40834579333009546	0.0	0.9154013229453218	-0.45697085509288243	0.0	0.8940570534514678	-0.5290091681877225	0.0	0.9101853415950315	-0.5958429965975617	0.0	0.9828255048001099	-0.4641200176330374	0.0	0.9723531297563666	-0.536495898855715	0.0	0.9821496634457695	-0.6060636567617599	0.0
183	6.1260683760683765	0.9501753702682588	-0.6018380365918772	0.0	0.9370715999719224	-0.5956189260307788	0.0	0.9395114979447579	-0.7049568446129623	0.0	0.9244632522948434	-0.8124579694823417	0.0	0.9706170529495741	-0.8330213426517054	0.0	0.9603798981380861	-0.8345266444016833	0.0	0.9176761853926971	-0.8294470158254038	0.0	0.9615004279664481	-0.5990470594447762	0.0	0.9442482656155525	-0.7052650435689635	0.0	0.9265942052570014	-0.8105364783754013	0.0	0.9706100645689285	-0.8314566363498238	0.0	0.9685032856250486	-0.8282391002139875	0.0	0.9135972683059354	-0.8267720388975578	0.0	0.9569469445281865	-0.43792620242765395	0.0	0.9695918305899622	-0.3699635382219661	0.0	0.9691042368350158	-0.41092784499853896	0.0	0.9155312667800937	-0.4590979868941956	0.0	0.8943826861741992	-0.531438908615212	0.0	0.910228399847701	-0.5982093420985028	0.0	0.9824167114045149	-0.46621897449184097	0.0	0.9743799554200941	-0.5397312656393797	0.0	0.9855749867332098	-0.6085736665401893	0.0
